<svg xmlns="http://www.w3.org/2000/svg" viewBox="0 0 800 160">
  <defs>
<radialGradient id="torchGlow" cx="0" cy="0" r="1" gradientUnits="userSpaceOnUse"
      gradientTransform="translate(87 80) scale(87 40)">
      <stop offset="0%"   stop-color="#c87020" stop-opacity="0.24"/>
      <stop offset="100%" stop-color="#c87020" stop-opacity="0"/>
    </radialGradient>
    <linearGradient id="accentBar" x1="0%" y1="0%" x2="0%" y2="100%">
      <stop offset="0%"   stop-color="#c87020" stop-opacity="0"/>
      <stop offset="25%"  stop-color="#c87020" stop-opacity="0.8"/>
      <stop offset="75%"  stop-color="#c87020" stop-opacity="0.8"/>
      <stop offset="100%" stop-color="#c87020" stop-opacity="0"/>
    </linearGradient>
    <linearGradient id="titleGrad" x1="0%" y1="0%" x2="100%" y2="0%">
      <stop offset="0%"   stop-color="#ffffff"/>
      <stop offset="100%" stop-color="#cccccc"/>
    </linearGradient>
    <style>
      .title {
        fill: url(#titleGrad);
        stroke: #0d1117;
        stroke-width: 4;
        stroke-linejoin: round;
        paint-order: stroke fill;
      }
      .subtitle { fill: #808080; }

      @media (prefers-color-scheme: light) {
        .subtitle { fill: #505050; }
      }
    </style>
  </defs>

  <!-- Title -->
  <text class="title" x="202" y="75"
        font-family="-apple-system, 'Segoe UI', Helvetica, Arial, sans-serif"
        font-size="32" font-weight="700" letter-spacing="0.4">D&amp;D STL Dungeon Designer</text>

  <!-- Glow on top of title outline so it blends into dark backgrounds -->
  <rect width="800" height="160" rx="12" fill="url(#torchGlow)"/>

  <!-- Tiles in front of glow -->
  <g transform="translate(10,0) scale(0.6)">
    <!-- TILE (0,0) -->
    <polygon points="78,100 128,125 128,143 78,118"  fill="#232335"/>
    <polygon points="128,125 178,100 178,118 128,143" fill="#2e2e48"/>
    <polygon points="128,75 178,100 128,125 78,100"   fill="#6a6a84" stroke="#9898b8" stroke-width="1.2"/>
    <line x1="103" y1="87.5"  x2="153" y2="112.5" stroke="#3e3e58" stroke-width="1"/>
    <line x1="153" y1="87.5"  x2="103" y2="112.5" stroke="#3e3e58" stroke-width="1"/>
    <line x1="128" y1="75"    x2="178" y2="100"   stroke="#c0c0dc" stroke-width="1.6" opacity="0.60"/>
    <line x1="128" y1="75"    x2="78"  y2="100"   stroke="#c0c0dc" stroke-width="1.6" opacity="0.42"/>
    <!-- TILE (1,0) -->
    <polygon points="128,125 178,150 178,168 128,143"  fill="#232335"/>
    <polygon points="178,150 228,125 228,143 178,168"  fill="#2e2e48"/>
    <polygon points="178,100 228,125 178,150 128,125"  fill="#64647e" stroke="#9898b8" stroke-width="1.2"/>
    <line x1="153" y1="112.5" x2="203" y2="137.5" stroke="#3e3e58" stroke-width="1"/>
    <line x1="203" y1="112.5" x2="153" y2="137.5" stroke="#3e3e58" stroke-width="1"/>
    <line x1="178" y1="100"   x2="228" y2="125"   stroke="#c0c0dc" stroke-width="1.6" opacity="0.60"/>
    <line x1="178" y1="100"   x2="128" y2="125"   stroke="#c0c0dc" stroke-width="1.6" opacity="0.42"/>
    <!-- TILE (0,1) -->
    <polygon points="28,125 78,150 78,168 28,143"     fill="#232335"/>
    <polygon points="78,150 128,125 128,143 78,168"   fill="#2e2e48"/>
    <polygon points="78,100 128,125 78,150 28,125"    fill="#66667e" stroke="#9898b8" stroke-width="1.2"/>
    <line x1="53"  y1="112.5" x2="103" y2="137.5" stroke="#3e3e58" stroke-width="1"/>
    <line x1="103" y1="112.5" x2="53"  y2="137.5" stroke="#3e3e58" stroke-width="1"/>
    <line x1="78"  y1="100"   x2="128" y2="125"   stroke="#c0c0dc" stroke-width="1.6" opacity="0.60"/>
    <line x1="78"  y1="100"   x2="28"  y2="125"   stroke="#c0c0dc" stroke-width="1.6" opacity="0.42"/>
    <!-- TILE (1,1) -->
    <polygon points="78,150 128,175 128,193 78,168"   fill="#232335"/>
    <polygon points="128,175 178,150 178,168 128,193" fill="#2e2e48"/>
    <polygon points="128,125 178,150 128,175 78,150"  fill="#606078" stroke="#9898b8" stroke-width="1.2"/>
    <line x1="103" y1="137.5" x2="153" y2="162.5" stroke="#3e3e58" stroke-width="1"/>
    <line x1="153" y1="137.5" x2="103" y2="162.5" stroke="#3e3e58" stroke-width="1"/>
    <line x1="128" y1="125"   x2="178" y2="150"   stroke="#c0c0dc" stroke-width="1.6" opacity="0.60"/>
    <line x1="128" y1="125"   x2="78"  y2="150"   stroke="#c0c0dc" stroke-width="1.6" opacity="0.42"/>
  </g>

  <!-- Accent divider — warm amber to match torch glow -->
  <rect x="177" y="0" width="2" height="160" fill="url(#accentBar)" rx="1"/>

  <text class="subtitle" x="203" y="103"
        font-family="-apple-system, 'Segoe UI', Helvetica, Arial, sans-serif"
        font-size="16" letter-spacing="0.2">Modular terrain planner for tabletop RPGs</text>

</svg>
